<svg width="439" height="280" viewBox="0 0 439 280" fill="none" xmlns="http://www.w3.org/2000/svg">
<path d="M0 174.815C0 199.468 9.37083 216.783 35.767 216.783C53.8737 216.783 64.9608 207.114 68.2388 192.765C69.4917 187.142 65.5958 184.639 59.503 184.793C54.5087 184.964 51.2134 186.353 49.4972 190.57C46.8541 196.656 42.7866 200.719 35.767 200.719C22.1742 200.719 20.1318 186.353 20.1318 174.815C20.1318 163.277 21.8653 148.911 35.767 148.911C43.5761 148.911 47.0086 152.357 49.0338 159.214C50.4411 163.432 53.4103 164.666 58.5591 164.837C65.7502 164.837 68.4105 162.334 67.621 156.094C65.9047 142.053 53.5647 132.847 35.767 132.847C9.37083 132.847 0 150.162 0 174.815ZM105.104 112.566C105.104 106.48 99.9555 104.92 94.635 104.92C89.4862 104.92 84.183 106.789 84.183 112.72V209.137C84.183 215.069 89.4862 216.629 94.635 216.629C99.9555 216.629 105.104 215.069 105.104 209.137V174.661C105.104 163.586 108.691 150.471 123.228 150.471C131.5 150.471 132.444 158.271 132.444 164.203V209.137C132.444 215.069 137.748 216.629 142.896 216.629C148.217 216.629 153.366 215.069 153.366 209.137V159.677C153.366 140.493 143.686 131.75 126.97 131.75C120.722 131.75 112.45 133.619 105.104 140.802V112.566ZM193.973 140.339C193.973 134.407 188.669 132.847 183.521 132.847C178.2 132.847 173.051 134.407 173.051 140.339V209.137C173.051 215.069 178.2 216.629 183.521 216.629C188.669 216.629 193.973 215.069 193.973 209.137V140.339ZM183.521 104.92C174.459 104.92 172.107 108.983 172.107 115.223C172.107 121.309 173.824 126.144 183.521 126.144C193.046 126.144 194.917 121.309 194.917 115.223C194.917 108.983 192.411 104.92 183.521 104.92ZM236.141 112.566C236.141 106.48 230.993 104.92 225.689 104.92C220.523 104.92 215.22 106.634 215.22 112.566V209.137C215.22 215.069 220.523 216.629 225.689 216.629C230.993 216.629 236.141 215.069 236.141 209.137V112.566ZM277.383 112.566C277.383 106.48 272.235 104.92 266.914 104.92C261.765 104.92 256.445 106.634 256.445 112.566V209.137C256.445 215.069 261.765 216.629 266.914 216.629C272.235 216.629 277.383 215.069 277.383 209.137V112.566ZM341.726 208.828C344.077 213.817 346.738 215.686 352.195 215.686C357.19 215.532 360.468 213.972 360.004 208.52C359.696 204.765 359.387 201.491 359.387 198.062V162.026C359.387 140.339 344.232 132.23 326.417 132.23C316.274 132.23 307.367 134.099 298.305 139.55C293.619 142.362 293.774 148.294 296.743 152.031C299.712 155.477 302.99 155.306 306.749 153.745C314.094 150.625 317.527 148.911 326.108 149.065C332.51 149.065 338.603 152.185 338.448 162.952C317.99 161.717 291.44 164.512 291.44 191.359C291.44 207.423 304.088 216.937 318.299 216.937C329.867 216.937 336.423 213.354 341.726 208.828ZM338.448 178.244C339.855 189.799 334.398 200.085 323.465 200.085C316.892 200.085 312.687 196.656 312.532 191.359C312.052 177.627 329.712 177.627 338.448 178.244ZM375.314 143.768L393.592 173.101L372.962 205.074C369.221 210.851 371.092 215.223 378.592 215.532C384.375 215.84 389.679 216.012 392.648 210.543L404.833 188.239L416.864 210.543C419.988 216.012 425.137 215.84 430.921 215.532C438.404 215.223 440.292 210.851 436.533 205.074L416.075 173.101L434.199 143.768C438.404 136.91 433.564 134.253 427.643 133.79C422.631 133.464 417.637 133.31 415.148 137.99L404.833 157.654L394.364 137.99C392.03 133.31 387.019 133.464 382.024 133.79C376.086 134.253 371.246 136.91 375.314 143.768Z" fill="white"/>
<path d="M66.7066 235.367C66.7066 235.367 65.8828 235.042 64.321 235.042C62.6734 235.042 61.9354 235.367 61.9354 235.367V239.67C61.9354 239.67 62.6734 239.996 64.321 239.996C65.8828 239.996 66.7066 239.67 66.7066 239.67V235.367ZM62.0212 272.655C62.0212 275.175 60.9743 276.272 58.9148 276.272C57.9537 276.272 57.2157 276.084 57.2157 276.084C57.2157 276.084 56.7523 276.821 56.7523 278.433C56.7523 279.015 56.8896 279.478 56.8896 279.478C56.8896 279.478 58.0395 279.89 59.9617 279.89C64.2695 279.89 66.6208 277.318 66.6208 272.467V244.659C66.6208 244.659 65.8313 244.334 64.321 244.334C62.7249 244.334 62.0212 244.659 62.0212 244.659V272.655ZM73.2113 261.974C73.2113 266.106 75.7342 268.901 80.3338 268.901C83.1657 268.901 85.6028 267.889 87.2504 266.003V268.112C87.2504 268.112 88.0742 268.438 89.5502 268.438C91.1463 268.438 91.8328 268.112 91.8328 268.112V244.659C91.8328 244.659 91.1463 244.334 89.5502 244.334C88.0742 244.334 87.2504 244.659 87.2504 244.659V262.249C86.0147 264.135 84.0924 265.18 82.0672 265.18C79.1324 265.18 77.8109 263.723 77.8109 261.152V244.659C77.8109 244.659 77.0729 244.334 75.5111 244.334C74.0008 244.334 73.2113 244.659 73.2113 244.659V261.974ZM97.4793 251.071C97.4793 255.614 100.878 256.934 104.001 257.86C106.696 258.631 109.219 259.18 109.219 261.7C109.219 263.946 107.622 265.009 104.825 265.009C101.616 265.009 98.6292 263.86 98.6292 263.86C97.8054 264.632 97.3935 265.918 97.3935 267.255C97.3935 267.255 100.225 268.901 105.048 268.901C110.866 268.901 113.767 266.192 113.767 261.563C113.767 257.071 110.643 255.648 107.657 254.688C104.773 253.728 101.89 253.18 101.89 250.934C101.89 248.791 103.452 247.642 106.558 247.642C109.184 247.642 111.381 248.379 111.381 248.379C112.153 247.642 112.565 246.305 112.565 245.122C112.565 245.122 110.592 243.888 106.095 243.888C100.277 243.888 97.4793 246.768 97.4793 251.071ZM125.128 247.779H131.101C131.101 247.779 131.376 247.094 131.376 246.031C131.376 244.934 131.101 244.334 131.101 244.334H125.128V239.259C123.446 239.122 121.747 239.43 120.546 240.168V244.334H117.028C117.028 244.334 116.736 244.934 116.736 246.082C116.736 247.128 117.028 247.779 117.028 247.779H120.546V260.003C120.546 265.832 122.794 268.901 128.441 268.901C129.677 268.901 130.912 268.712 131.736 268.489C131.736 268.489 131.976 267.889 131.976 266.826C131.976 265.78 131.65 265.009 131.65 265.009C131.65 265.009 130.638 265.18 129.728 265.18C126.467 265.18 125.128 263.946 125.128 259.78V247.779ZM151.284 247.814V244.659C151.284 244.659 150.495 244.334 148.985 244.334C147.388 244.334 146.685 244.659 146.685 244.659V268.112C146.685 268.112 147.388 268.438 148.985 268.438C150.495 268.438 151.284 268.112 151.284 268.112V251.448C152.469 249.34 154.219 247.951 156.004 247.951C157.051 247.951 157.978 248.277 158.853 248.928C160.089 247.917 160.724 246.717 160.861 245.071C159.849 244.436 158.578 243.922 156.879 243.922C155.043 243.922 153.018 244.934 151.284 247.814ZM182.469 257.809C182.469 257.809 182.967 255.974 182.967 253.094C182.967 246.991 179.534 243.888 173.888 243.888C167.795 243.888 163.71 247.591 163.71 256.248C163.71 264.546 167.005 268.901 174.076 268.901C179.071 268.901 181.679 266.963 181.679 266.963C181.645 265.643 181.044 264.409 180.221 263.672C180.221 263.672 178.058 265.009 174.814 265.009C171.004 265.009 168.807 263.26 168.43 257.809H182.469ZM178.384 252.494C178.384 253.454 178.298 254.191 178.247 254.551H168.43C168.807 249.477 170.901 247.505 173.888 247.505C177.286 247.505 178.384 249.785 178.384 252.494ZM193.058 234.39C193.058 234.39 192.286 234.082 190.776 234.082C189.162 234.082 188.476 234.39 188.476 234.39V268.112C188.476 268.112 189.162 268.438 190.776 268.438C192.286 268.438 193.058 268.112 193.058 268.112V234.39ZM204.626 234.39C204.626 234.39 203.836 234.082 202.326 234.082C200.713 234.082 200.026 234.39 200.026 234.39V268.112C200.026 268.112 200.713 268.438 202.326 268.438C203.836 268.438 204.626 268.112 204.626 268.112V234.39ZM211.766 245.585C211.766 245.619 211.628 246.545 212.04 247.505C212.504 248.465 213.053 248.825 213.104 248.877C213.104 248.877 216.039 247.728 219.249 247.728C222.784 247.728 223.968 249.511 223.968 252.631V254.328C222.784 254.191 220.81 254.054 218.751 254.054C213.019 254.054 209.946 256.248 209.946 261.237C209.946 266.38 212.744 268.901 217.052 268.901C220.536 268.901 223.059 267.615 224.243 265.18L224.929 268.112C224.929 268.112 225.616 268.438 226.766 268.438C228.053 268.438 228.568 268.112 228.568 268.112V252.768C228.568 246.854 226.457 243.888 219.798 243.888C215.215 243.888 211.766 245.585 211.766 245.585ZM223.968 257.449V259.043C223.968 262.3 222.269 265.369 218.648 265.369C216.176 265.369 214.666 264.22 214.666 261.237C214.666 258.357 216.262 257.174 219.334 257.174C221.085 257.174 222.921 257.346 223.968 257.449ZM240.616 256.111L232.498 268.112C232.498 268.112 233.373 268.438 234.884 268.438C236.308 268.438 237.132 268.112 237.132 268.112L243.105 259.283L249.009 268.112C249.009 268.112 249.884 268.438 251.532 268.438C253.145 268.438 254.054 268.112 254.054 268.112L245.902 255.923L253.505 244.659C253.505 244.659 252.681 244.334 251.12 244.334C249.695 244.334 248.923 244.659 248.923 244.659L243.465 252.768L238.059 244.659C238.059 244.659 237.184 244.334 235.536 244.334C233.923 244.334 233.013 244.659 233.013 244.659L240.616 256.111ZM279.747 236.825C274.564 236.825 272.178 239.893 272.178 244.385C272.178 246.579 272.727 249.065 273.877 251.585C271.578 252.82 267.081 255.888 267.081 261.014C267.081 266.552 271.492 268.901 275.988 268.901C280.931 268.901 284.106 266.38 285.342 265.146C287.264 266.415 289.324 267.615 291.538 268.489C292.722 267.803 293.632 266.243 293.546 264.82C291.675 263.997 289.925 263.037 288.277 261.974C289.873 259.969 290.886 258.031 291.486 256.488C290.748 255.511 289.375 254.928 287.951 255.1C287.402 256.711 286.715 258.443 285.617 259.969C282.768 257.62 280.485 254.963 278.872 252.305C283.042 249.785 286.664 247.128 286.664 242.499C286.664 239.07 284.055 236.825 279.747 236.825ZM279.507 239.893C281.48 239.893 282.493 241.042 282.493 242.825C282.493 245.996 280.382 247.814 277.447 249.562C276.623 247.677 276.16 245.859 276.16 244.111C276.16 241.265 277.499 239.893 279.507 239.893ZM276.709 265.18C273.465 265.18 271.44 263.26 271.44 260.414C271.44 257.397 273.774 255.34 275.302 254.328C277.087 257.449 279.61 260.466 282.716 263.123C281.721 263.86 279.61 265.18 276.709 265.18ZM318.037 247.642C320.474 247.642 322.07 248.328 322.07 248.328C322.894 247.539 323.409 246.271 323.409 245.019C323.409 245.019 321.658 243.888 317.265 243.888C310.571 243.888 307.173 248.242 307.173 256.386C307.173 264.546 310.571 268.901 317.265 268.901C321.847 268.901 323.872 267.529 323.872 267.529C323.821 266.243 323.306 264.906 322.534 264.22C322.534 264.22 320.749 265.009 318.226 265.009C313.815 265.009 311.893 262.386 311.893 256.386C311.893 250.437 313.643 247.642 318.037 247.642ZM347.351 250.797C347.351 246.682 344.828 243.888 340.246 243.888C337.345 243.888 334.959 244.882 333.312 246.768V234.39C333.312 234.39 332.488 234.082 331.012 234.082C329.416 234.082 328.729 234.39 328.729 234.39V268.112C328.729 268.112 329.416 268.438 331.012 268.438C332.488 268.438 333.312 268.112 333.312 268.112V250.522C334.513 248.688 336.47 247.591 338.495 247.591C341.43 247.591 342.768 249.065 342.768 251.62V268.112C342.768 268.112 343.489 268.438 345.051 268.438C346.561 268.438 347.351 268.112 347.351 268.112V250.797ZM358.678 235.402C358.678 235.402 357.854 235.093 356.293 235.093C354.645 235.093 353.907 235.402 353.907 235.402V239.705C353.907 239.705 354.645 240.03 356.293 240.03C357.854 240.03 358.678 239.705 358.678 239.705V235.402ZM358.575 244.659C358.575 244.659 357.803 244.334 356.293 244.334C354.679 244.334 353.993 244.659 353.993 244.659V268.112C353.993 268.112 354.679 268.438 356.293 268.438C357.803 268.438 358.575 268.112 358.575 268.112V244.659ZM370.091 234.39C370.091 234.39 369.319 234.082 367.809 234.082C366.195 234.082 365.509 234.39 365.509 234.39V268.112C365.509 268.112 366.195 268.438 367.809 268.438C369.319 268.438 370.091 268.112 370.091 268.112V234.39ZM381.659 234.39C381.659 234.39 380.87 234.082 379.359 234.082C377.746 234.082 377.059 234.39 377.059 234.39V268.112C377.059 268.112 377.746 268.438 379.359 268.438C380.87 268.438 381.659 268.112 381.659 268.112V234.39Z" fill="white"/>
<path d="M222.089 40.6312C222.089 27.3619 229.297 15.8413 240.11 9.77238C234.755 6.78936 228.679 5.14355 222.089 5.14355C201.597 5.14355 185.018 21.7045 185.018 42.1742C185.018 62.6439 201.597 79.2048 222.089 79.2048C229.709 79.2048 236.815 76.9418 242.684 72.9301C230.533 67.2727 222.089 54.9291 222.089 40.6312Z" fill="white"/>
<path d="M250.304 40.3217L240.933 46.2878L243.714 35.59L235.27 28.5954L246.185 27.8753L250.304 17.6919L254.32 27.8753L265.339 28.5954L256.792 35.59L259.572 46.2878L250.304 40.3217Z" fill="white"/>
<path d="M181.104 11.3149L176.47 14.1951L177.912 8.94906L173.587 5.45173L179.148 5.04028L181.104 0L183.164 5.04028L188.622 5.45173L184.4 8.94906L185.841 14.1951L181.104 11.3149Z" fill="white"/>
<path d="M180.487 76.3242L175.956 79.2044L177.294 74.0612L173.072 70.5639L178.53 70.2553L180.487 65.3179L182.443 70.2553L187.798 70.5639L183.679 74.0612L185.017 79.2044L180.487 76.3242Z" fill="white"/>
</svg>
